<?xml version="1.0" encoding="utf-8"?>
<svg xmlns="http://www.w3.org/2000/svg" viewBox="0 0 16 16" width="512" height="512">
  <path d="M6.496094 1C5.675781 1 5 1.675781 5 2.496094L5 3L2 3L2 4L3 4L3 12.5C3 13.328125 3.671875 14 4.5 14L10.5 14C11.328125 14 12 13.328125 12 12.5L12 4L13 4L13 3L10 3L10 2.496094C10 1.675781 9.324219 1 8.503906 1 Z M 6.496094 2L8.503906 2C8.785156 2 9 2.214844 9 2.496094L9 3L6 3L6 2.496094C6 2.214844 6.214844 2 6.496094 2 Z M 5 5L6 5L6 12L5 12 Z M 7 5L8 5L8 12L7 12 Z M 9 5L10 5L10 12L9 12Z" />
</svg>