<?xml version="1.0" encoding="utf-8"?>
<svg xmlns="http://www.w3.org/2000/svg" viewBox="0 0 64 64" width="512" height="512">
  <linearGradient id="IwP9xRNTAeiaCce0m~H0wa" x1="19.5" x2="19.5" y1="28.5" y2="37.791" gradientUnits="userSpaceOnUse" spreadMethod="reflect">
    <stop offset="0" stop-color="#6dc7ff" />
    <stop offset="1" stop-color="#e6abff" />
  </linearGradient>
  <path fill="url(#IwP9xRNTAeiaCce0m~H0wa)" d="M16,30.354C16.733,29.524,17.806,29,19,29c2.209,0,4,1.791,4,4c0,2.209-1.791,4-4,4h0" />
  <linearGradient id="IwP9xRNTAeiaCce0m~H0wb" x1="39" x2="39" y1="42.438" y2="47.5" gradientUnits="userSpaceOnUse" spreadMethod="reflect">
    <stop offset="0" stop-color="#6dc7ff" />
    <stop offset="1" stop-color="#e6abff" />
  </linearGradient>
  <path fill="url(#IwP9xRNTAeiaCce0m~H0wb)" d="M39 43A2 2 0 1 0 39 47A2 2 0 1 0 39 43Z" />
  <linearGradient id="IwP9xRNTAeiaCce0m~H0wc" x1="38" x2="38" y1="24.625" y2="29.75" gradientUnits="userSpaceOnUse" spreadMethod="reflect">
    <stop offset="0" stop-color="#6dc7ff" />
    <stop offset="1" stop-color="#e6abff" />
  </linearGradient>
  <path fill="url(#IwP9xRNTAeiaCce0m~H0wc)" d="M38 25A2 2 0 1 0 38 29A2 2 0 1 0 38 25Z" />
  <linearGradient id="IwP9xRNTAeiaCce0m~H0wd" x1="32.002" x2="32.002" y1="5.167" y2="59.864" gradientUnits="userSpaceOnUse" spreadMethod="reflect">
    <stop offset="0" stop-color="#1a6dff" />
    <stop offset="1" stop-color="#c822ff" />
  </linearGradient>
  <path fill="url(#IwP9xRNTAeiaCce0m~H0wd)" d="M8.797,16.541l-0.85,0.468l19.502,38.175C28.337,56.92,30.08,58,32,58 c0.001,0,0.001,0,0.001,0c1.92,0,3.665-1.079,4.553-2.816l19.502-38.176l-0.85-0.467C39.808,8.07,24.193,8.07,8.797,16.541z M53.389,17.833l-0.746,1.461C46.341,15.84,39.232,14,32,14c-7.233,0-14.341,1.839-20.64,5.293l-0.746-1.46 C24.812,10.327,39.193,10.328,53.389,17.833z M15.778,27.94C16.733,27.33,17.842,27,19,27c3.309,0,6,2.691,6,6 c0,2.458-1.542,4.664-3.796,5.561L15.778,27.94z M34.772,54.273C34.22,55.354,33.184,56,32.001,56s-2.219-0.646-2.771-1.727 l-7.116-13.929C25.024,39.104,27,36.213,27,33c0-4.411-3.589-8-8-8c-1.479,0-2.896,0.408-4.133,1.158l-2.598-5.084 C18.287,17.763,25.084,16,32,16c6.917,0,13.714,1.764,19.733,5.074l-9.615,18.82C41.179,39.319,40.118,39,39,39 c-3.309,0-6,2.691-6,6c0,2.444,1.498,4.608,3.686,5.527L34.772,54.273z M41.208,41.677l-3.609,7.065C36.063,48.166,35,46.682,35,45 c0-2.206,1.794-4,4-4C39.797,41,40.552,41.241,41.208,41.677z" />
  <linearGradient id="IwP9xRNTAeiaCce0m~H0we" x1="32" x2="32" y1="5.167" y2="59.864" gradientUnits="userSpaceOnUse" spreadMethod="reflect">
    <stop offset="0" stop-color="#1a6dff" />
    <stop offset="1" stop-color="#c822ff" />
  </linearGradient>
  <path fill="url(#IwP9xRNTAeiaCce0m~H0we)" d="M32.001,6c-9.225,0-18.226,2.574-26.03,7.443l1.059,1.697C14.517,10.469,23.151,8,32.001,8 c8.849,0,17.482,2.469,24.97,7.139l1.059-1.697C50.225,8.573,41.224,6,32.001,6z" />
  <linearGradient id="IwP9xRNTAeiaCce0m~H0wf" x1="38" x2="38" y1="5.167" y2="59.864" gradientUnits="userSpaceOnUse" spreadMethod="reflect">
    <stop offset="0" stop-color="#1a6dff" />
    <stop offset="1" stop-color="#c822ff" />
  </linearGradient>
  <path fill="url(#IwP9xRNTAeiaCce0m~H0wf)" d="M38,33c3.309,0,6-2.691,6-6s-2.691-6-6-6s-6,2.691-6,6S34.691,33,38,33z M38,23 c2.206,0,4,1.794,4,4s-1.794,4-4,4s-4-1.794-4-4S35.794,23,38,23z" />
</svg>